<svg width="20" height="19" viewBox="0 0 20 19" fill="none" xmlns="http://www.w3.org/2000/svg">
<g clip-path="url(#clip0_1_4346)">
<g clip-path="url(#clip1_1_4346)">
<path d="M16.939 18.2588C18.0478 18.2588 18.9678 17.3388 18.9678 16.23L18.9678 2.02886C18.9678 0.920091 18.0478 0.000121036 16.939 0.000120939L2.73785 0.000119698C1.62908 0.000119601 0.709107 0.92009 0.709107 2.02886L0.709106 16.23C0.709106 17.3388 1.62908 18.2588 2.73785 18.2588L16.939 18.2588ZM16.939 16.23L7.8097 16.23L7.8097 9.12945L7.8097 2.02886L16.939 2.02886L16.939 16.23ZM7.8097 9.12945L11.8672 13.1869L11.8672 10.1438L14.9103 10.1438L14.9103 8.11508L11.8672 8.11508L11.8672 5.07197L7.8097 9.12945Z" fill="white"/>
</g>
</g>
<defs>
<clipPath id="clip0_1_4346">
<rect width="18.55" height="18.55" fill="white" transform="translate(0.838867 0.129395)"/>
</clipPath>
<clipPath id="clip1_1_4346">
<rect width="18.55" height="18.55" fill="white" transform="translate(0.838867 0.129395)"/>
</clipPath>
</defs>
</svg>
